<svg width="20" height="20" viewBox="0 0 20 20" fill="none" xmlns="http://www.w3.org/2000/svg">
<path fill-rule="evenodd" clip-rule="evenodd" d="M16.6236 13.6005C16.5702 13.3056 16.6063 13.0015 16.7273 12.7273C16.8425 12.4584 17.0339 12.2291 17.2778 12.0676C17.5217 11.906 17.8075 11.8193 18.1 11.8182H18.1818C18.664 11.8182 19.1265 11.6266 19.4675 11.2856C19.8084 10.9447 20 10.4822 20 10C20 9.51779 19.8084 9.05533 19.4675 8.71435C19.1265 8.37338 18.664 8.18182 18.1818 8.18182H18.0273C17.7347 8.18065 17.4489 8.09397 17.205 7.93245C16.9611 7.77093 16.7698 7.54161 16.6545 7.27273V7.2C16.5335 6.9258 16.4974 6.62164 16.5509 6.32674C16.6044 6.03183 16.745 5.75971 16.9545 5.54545L17.0091 5.49091C17.1781 5.32205 17.3122 5.12152 17.4037 4.9008C17.4952 4.68008 17.5423 4.44348 17.5423 4.20455C17.5423 3.96561 17.4952 3.72901 17.4037 3.50829C17.3122 3.28757 17.1781 3.08704 17.0091 2.91818C16.8402 2.74913 16.6397 2.61503 16.419 2.52353C16.1983 2.43203 15.9617 2.38493 15.7227 2.38493C15.4838 2.38493 15.2472 2.43203 15.0265 2.52353C14.8057 2.61503 14.6052 2.74913 14.4364 2.91818L14.3818 2.97273C14.1676 3.18231 13.8954 3.3229 13.6005 3.37637C13.3056 3.42984 13.0015 3.39374 12.7273 3.27273C12.4584 3.15749 12.2291 2.96614 12.0676 2.72224C11.906 2.47834 11.8193 2.19253 11.8182 1.9V1.81818C11.8182 1.33597 11.6266 0.873508 11.2856 0.532533C10.9447 0.191558 10.4822 0 10 0C9.51779 0 9.05533 0.191558 8.71435 0.532533C8.37338 0.873508 8.18182 1.33597 8.18182 1.81818V1.97273C8.18065 2.26526 8.09397 2.55107 7.93245 2.79497C7.77093 3.03887 7.54161 3.23022 7.27273 3.34545H7.2C6.9258 3.46647 6.62164 3.50257 6.32674 3.4491C6.03183 3.39562 5.75971 3.25503 5.54545 3.04545L5.49091 2.99091C5.32205 2.82186 5.12152 2.68775 4.9008 2.59626C4.68008 2.50476 4.44348 2.45766 4.20455 2.45766C3.96561 2.45766 3.72901 2.50476 3.50829 2.59626C3.28757 2.68775 3.08704 2.82186 2.91818 2.99091C2.74913 3.15977 2.61503 3.36029 2.52353 3.58102C2.43203 3.80174 2.38493 4.03834 2.38493 4.27727C2.38493 4.51621 2.43203 4.7528 2.52353 4.97353C2.61503 5.19425 2.74913 5.39478 2.91818 5.56364L2.97273 5.61818C3.18231 5.83244 3.3229 6.10456 3.37637 6.39947C3.42984 6.69437 3.39374 6.99853 3.27273 7.27273C3.16883 7.55521 2.98236 7.79991 2.73754 7.97501C2.49273 8.15011 2.2009 8.24751 1.9 8.25455H1.81818C1.33597 8.25455 0.873508 8.4461 0.532533 8.78708C0.191558 9.12805 0 9.59052 0 10.0727C0 10.5549 0.191558 11.0174 0.532533 11.3584C0.873508 11.6994 1.33597 11.8909 1.81818 11.8909H1.97273C2.26526 11.8921 2.55107 11.9788 2.79497 12.1403C3.03887 12.3018 3.23022 12.5311 3.34545 12.8C3.46647 13.0742 3.50257 13.3784 3.4491 13.6733C3.39562 13.9682 3.25503 14.2403 3.04545 14.4545L2.99091 14.5091C2.82186 14.678 2.68775 14.8785 2.59626 15.0992C2.50476 15.3199 2.45766 15.5565 2.45766 15.7955C2.45766 16.0344 2.50476 16.271 2.59626 16.4917C2.68775 16.7124 2.82186 16.913 2.99091 17.0818C3.15977 17.2509 3.36029 17.385 3.58102 17.4765C3.80174 17.568 4.03834 17.6151 4.27727 17.6151C4.51621 17.6151 4.7528 17.568 4.97353 17.4765C5.19425 17.385 5.39478 17.2509 5.56364 17.0818L5.61818 17.0273C5.83244 16.8177 6.10456 16.6771 6.39947 16.6236C6.69437 16.5702 6.99853 16.6063 7.27273 16.7273C7.55521 16.8312 7.79991 17.0176 7.97501 17.2625C8.15011 17.5073 8.24751 17.7991 8.25455 18.1V18.1818C8.25455 18.664 8.4461 19.1265 8.78708 19.4675C9.12805 19.8084 9.59052 20 10.0727 20C10.5549 20 11.0174 19.8084 11.3584 19.4675C11.6994 19.1265 11.8909 18.664 11.8909 18.1818V18.0273C11.8921 17.7347 11.9788 17.4489 12.1403 17.205C12.3018 16.9611 12.5311 16.7698 12.8 16.6545C13.0742 16.5335 13.3784 16.4974 13.6733 16.5509C13.9682 16.6044 14.2403 16.745 14.4545 16.9545L14.5091 17.0091C14.678 17.1781 14.8785 17.3122 15.0992 17.4037C15.3199 17.4952 15.5565 17.5423 15.7955 17.5423C16.0344 17.5423 16.271 17.4952 16.4917 17.4037C16.7124 17.3122 16.913 17.1781 17.0818 17.0091C17.2509 16.8402 17.385 16.6397 17.4765 16.419C17.568 16.1983 17.6151 15.9617 17.6151 15.7227C17.6151 15.4838 17.568 15.2472 17.4765 15.0265C17.385 14.8057 17.2509 14.6052 17.0818 14.4364L17.0273 14.3818C16.8177 14.1676 16.6771 13.8954 16.6236 13.6005ZM12.7273 10C12.7273 11.5062 11.5062 12.7273 10 12.7273C8.49377 12.7273 7.27273 11.5062 7.27273 10C7.27273 8.49377 8.49377 7.27273 10 7.27273C11.5062 7.27273 12.7273 8.49377 12.7273 10Z" fill="white"/>
</svg>
